<?xml version="1.0" standalone="no"?>
<!DOCTYPE svg PUBLIC "-//W3C//DTD SVG 20010904//EN"
 "http://www.w3.org/TR/2001/REC-SVG-20010904/DTD/svg10.dtd">
<svg version="1.0" xmlns="http://www.w3.org/2000/svg"
 width="1709.000000pt" height="607.000000pt" viewBox="0 0 1709.000000 607.000000"
 preserveAspectRatio="xMidYMid meet">

<g transform="translate(0.000000,607.000000) scale(0.100000,-0.100000)"
fill="#d49f0f" stroke="none">
<path d="M5410 6026 c-227 -29 -413 -75 -585 -143 -462 -183 -802 -527 -941
-949 -120 -368 -124 -797 -10 -1191 77 -267 127 -366 206 -415 93 -58 123 -60
855 -68 518 -6 694 -11 775 -23 156 -23 196 -44 128 -66 -65 -21 -231 -32
-648 -41 -470 -11 -672 -22 -832 -46 l-107 -17 102 -70 c282 -194 465 -281
742 -352 213 -54 341 -69 585 -69 301 0 513 34 755 120 201 72 331 142 475
259 223 179 369 354 485 580 97 190 110 254 120 595 8 289 -8 642 -33 735 -53
197 -216 467 -382 634 -136 137 -433 331 -598 391 -48 17 -73 21 -112 16 -75
-10 -277 -72 -687 -209 -538 -181 -744 -236 -822 -221 -104 21 -16 72 535 315
340 149 366 162 412 196 25 19 31 28 23 36 -17 17 -317 18 -441 3z m404 -769
c113 -52 249 -221 320 -396 33 -82 72 -242 87 -356 15 -114 6 -393 -16 -500
-58 -292 -186 -508 -368 -626 -110 -71 -200 -76 -316 -17 -139 70 -261 226
-330 422 -58 165 -76 286 -75 516 0 271 32 441 113 624 57 126 155 253 235
304 111 70 239 80 350 29z"/>
<path d="M2330 5405 l0 -595 -337 0 c-375 1 -532 10 -571 36 l-25 16 4 545 4
546 -280 -2 c-360 -2 -425 -10 -425 -52 0 -28 45 -234 85 -394 44 -170 56
-275 32 -275 -25 0 -112 106 -200 243 -285 445 -335 512 -381 505 -55 -8 -65
-128 -66 -790 l0 -496 58 -6 c31 -3 115 -11 187 -16 170 -14 746 -68 855 -80
47 -5 234 -26 415 -45 517 -55 618 -71 629 -101 3 -7 -1 -17 -7 -22 -52 -43
-427 -89 -912 -112 -214 -10 -940 -29 -1137 -30 l-88 0 0 -505 0 -505 595 0
595 0 0 230 c0 265 8 320 54 366 53 53 76 56 514 61 l402 5 0 -331 0 -331 589
0 588 0 7 98 c36 548 40 700 41 1347 0 426 -4 678 -10 692 -10 21 -10 21 -145
-29 -244 -91 -449 -160 -467 -156 -24 4 129 116 326 238 182 113 258 172 283
221 15 29 19 62 21 178 l2 141 -617 0 -618 0 0 -595z"/>
<path d="M7635 5990 c-68 -10 -95 -19 -95 -32 0 -36 381 -643 517 -825 l55
-73 48 0 c78 0 481 57 744 105 268 49 298 57 303 71 5 15 -110 245 -260 521
l-132 243 -223 0 c-123 0 -221 -3 -219 -7 3 -5 30 -50 61 -101 100 -166 125
-229 96 -247 -25 -15 -127 47 -320 195 -115 88 -158 111 -246 133 -72 18 -260
28 -329 17z"/>
<path d="M11677 5913 c-71 -115 -117 -202 -117 -221 0 -25 134 -8 612 78 623
113 855 167 830 192 -21 21 -204 30 -723 35 l-546 5 -56 -89z"/>
<path d="M15441 5983 c-5 -10 -38 -88 -74 -173 -134 -322 -599 -1374 -681
-1542 -58 -117 -108 -198 -123 -198 -7 0 -17 17 -23 38 -18 70 -30 487 -30
1105 l0 607 -95 0 c-116 0 -1046 -118 -1063 -134 -15 -16 -23 -293 -29 -992
l-5 -801 128 -12 c170 -15 554 -36 1124 -61 256 -10 521 -22 590 -26 l125 -6
95 224 c137 324 203 448 240 448 28 0 32 -32 39 -310 8 -297 13 -318 91 -357
69 -35 189 -43 687 -43 l453 0 2 848 c2 466 2 849 1 850 -1 2 -149 -12 -330
-32 -482 -52 -563 -55 -563 -25 0 29 203 94 597 192 159 40 290 75 291 80 1 4
2 81 2 172 l0 165 -720 0 c-675 0 -720 -1 -729 -17z"/>
<path d="M9905 5969 c-82 -4 -168 -12 -190 -16 l-40 -9 0 -129 c0 -72 9 -210
20 -308 l19 -178 35 5 c122 18 395 65 721 125 l375 68 3 226 2 227 -397 -1
c-219 -1 -465 -6 -548 -10z"/>
<path d="M12485 5540 c-428 -51 -930 -132 -1068 -172 -43 -13 -57 -35 -237
-378 -129 -246 -189 -346 -234 -389 -34 -33 -36 -34 -55 -17 -28 25 -30 44
-41 347 -6 174 -14 290 -23 315 l-12 39 -75 -2 c-41 -1 -290 -31 -552 -67
-263 -36 -479 -66 -481 -66 -2 0 -7 -78 -10 -174 -10 -248 -33 -406 -60 -406
-31 0 -90 80 -177 240 -121 223 -154 250 -303 250 -48 0 -193 -14 -324 -30
-509 -65 -583 -84 -583 -147 0 -31 7 -44 96 -178 88 -133 174 -299 174 -334 0
-17 -42 -88 -116 -196 -300 -440 -464 -690 -464 -708 0 -10 33 4 244 102 228
106 288 131 322 131 25 0 25 -1 -14 -46 -70 -78 -359 -298 -578 -439 -168
-107 -219 -149 -318 -260 -116 -131 -202 -263 -182 -282 15 -16 327 -23 868
-21 l570 3 170 355 c372 781 517 1058 581 1118 20 19 29 22 45 13 42 -22 45
-71 49 -798 l5 -693 574 0 574 0 0 533 c0 500 11 867 28 929 4 15 12 28 17 29
20 3 163 -251 387 -686 248 -480 368 -692 440 -779 l24 -29 57 17 c32 9 137
53 235 98 271 123 332 148 380 148 68 0 57 -26 -65 -151 l-106 -109 452 0 452
0 -12 23 c-20 36 -52 85 -320 477 -140 206 -287 423 -327 481 l-71 107 -98 7
c-310 22 -718 56 -783 65 -139 19 -221 53 -194 80 21 21 177 32 560 37 l401 6
-98 141 c-103 148 -193 302 -205 349 -11 47 38 127 396 639 187 268 340 489
340 492 0 10 -99 4 -255 -14z m-2475 -1589 c0 -21 -153 -22 -174 -1 -7 7 20
10 82 10 51 0 92 -4 92 -9z"/>
<path d="M13320 3133 l0 -528 707 2 c390 2 715 3 724 3 16 0 188 380 336 745
69 171 81 205 67 205 -3 0 -119 9 -257 20 -574 45 -1200 80 -1426 80 l-151 0
0 -527z"/>
<path d="M15660 3095 l0 -445 615 0 c338 0 615 3 615 8 0 4 1 192 1 417 l0
410 -313 6 c-172 4 -434 16 -583 28 -148 11 -285 21 -302 21 l-33 0 0 -445z"/>
<path d="M170 2870 l0 -180 595 0 595 0 0 180 0 180 -595 0 -595 0 0 -180z"/>
<path d="M2375 2847 l0 -197 567 0 c531 0 567 1 572 18 10 35 26 175 26 233 0
53 -4 64 -28 88 -46 47 -106 51 -647 54 l-490 2 0 -198z"/>
<path d="M12532 1495 c-86 -19 -147 -50 -205 -104 -48 -44 -87 -105 -87 -134
0 -8 8 -25 18 -38 35 -43 140 -22 265 54 82 50 115 54 187 21 80 -36 120 -81
120 -135 0 -70 -59 -126 -174 -165 -47 -16 -76 -45 -76 -75 0 -32 47 -74 145
-129 107 -60 135 -88 135 -133 0 -73 -102 -160 -189 -161 -68 -1 -93 9 -163
63 -86 66 -119 81 -173 81 -49 0 -82 -13 -102 -39 -20 -26 -15 -92 10 -133 62
-103 202 -145 487 -149 139 -2 160 6 247 92 77 77 106 134 111 222 5 87 -22
147 -113 240 -36 37 -65 74 -65 83 0 9 27 45 59 80 106 113 109 230 11 353
-80 99 -271 144 -448 106z"/>
<path d="M341 1358 c-37 -437 -66 -648 -108 -760 -26 -69 -59 -108 -94 -108
-10 0 -27 -12 -36 -27 -15 -23 -18 -51 -18 -193 0 -211 4 -220 99 -220 101 0
110 12 114 149 l4 111 373 0 373 0 4 -111 c3 -102 5 -112 27 -130 33 -27 129
-27 162 0 24 19 24 23 24 188 0 191 -8 221 -61 235 -53 13 -56 40 -61 551 l-5
457 -393 0 -392 0 -12 -142z m579 -448 l0 -420 -225 0 -226 0 5 33 c3 17 13
102 21 187 38 388 66 553 100 589 20 21 72 29 203 30 l122 1 0 -420z"/>
<path d="M2200 1143 c-1 -372 -10 -544 -32 -591 -8 -16 -34 -37 -63 -52 -76
-38 -108 -117 -64 -158 24 -23 132 -36 198 -23 150 30 181 152 181 725 l0 289
63 -6 c34 -4 117 -10 184 -13 l121 -7 6 -91 c3 -50 10 -246 16 -435 6 -189 15
-365 21 -392 14 -67 35 -79 131 -79 l78 0 0 595 0 595 -420 0 -420 0 0 -357z"/>
<path d="M4285 1493 c-88 -8 -184 -35 -223 -63 -107 -77 -129 -258 -51 -417
36 -75 76 -108 150 -124 30 -7 57 -15 61 -19 13 -10 -23 -69 -106 -175 -122
-154 -216 -309 -216 -354 0 -16 9 -21 45 -27 52 -7 129 2 165 21 42 22 94 84
176 210 91 139 179 237 246 271 113 57 127 31 138 -251 4 -110 11 -207 14
-216 11 -27 53 -39 131 -39 l75 0 0 595 0 595 -282 -2 c-156 -1 -301 -3 -323
-5z m347 -178 c28 -11 41 -70 36 -166 -6 -119 -10 -123 -136 -127 -156 -6
-297 38 -331 102 -17 31 -9 100 14 127 26 27 93 57 155 68 59 11 234 8 262 -4z"/>
<path d="M8148 1489 c-53 -30 -39 -87 28 -119 87 -43 198 -204 255 -369 29
-84 26 -114 -20 -162 -51 -51 -110 -150 -217 -361 l-85 -168 78 0 c105 1 149
12 188 50 18 17 75 111 126 207 103 192 149 256 182 251 31 -5 38 -42 46 -262
l8 -199 27 -24 c19 -16 39 -23 69 -23 106 0 109 8 118 250 7 196 16 250 43
250 27 0 75 -73 167 -252 60 -117 102 -187 124 -207 40 -35 96 -46 175 -34 54
9 55 9 54 41 -3 55 -158 325 -286 499 -31 42 -31 44 -20 94 14 58 77 198 124
274 37 59 97 125 114 125 26 0 74 51 74 78 0 49 -33 72 -102 72 -116 -1 -191
-75 -299 -295 -84 -173 -109 -212 -128 -200 -26 15 -34 67 -40 257 -8 238 -7
238 -111 238 -101 0 -101 0 -111 -225 -6 -153 -11 -192 -26 -218 -41 -70 -94
-29 -159 122 -91 214 -132 269 -226 300 -66 22 -142 27 -170 10z"/>
<path d="M10410 905 l0 -595 75 0 c81 0 134 16 174 53 38 36 109 146 272 427
l154 264 7 -39 c4 -22 7 -89 8 -150 1 -173 18 -449 29 -493 14 -50 44 -64 135
-60 l67 3 2 593 2 592 -83 0 c-161 0 -167 -7 -438 -469 -87 -148 -160 -269
-161 -267 -1 1 -7 132 -13 292 -6 159 -15 315 -20 348 -14 87 -26 96 -127 96
l-83 0 0 -595z"/>
<path d="M14067 1488 c-31 -23 -37 -123 -37 -655 l0 -523 79 0 c134 0 139 13
140 333 l1 197 240 0 240 0 1 -197 c1 -320 6 -333 140 -333 l79 0 0 595 0 595
-83 0 c-54 0 -90 -5 -101 -13 -27 -19 -35 -87 -35 -289 l-1 -178 -239 0 -239
0 -7 113 c-11 179 -22 280 -36 309 -7 16 -27 33 -51 42 -47 19 -69 20 -91 4z"/>
<path d="M15880 904 l0 -596 99 4 c93 3 103 6 143 35 54 38 120 134 295 430
76 128 141 232 144 233 3 0 9 -105 13 -232 3 -128 9 -286 13 -350 l6 -118 129
0 128 0 0 595 0 595 -91 0 c-64 0 -101 -5 -126 -17 -62 -29 -157 -165 -424
-607 -46 -77 -85 -133 -86 -125 -1 8 -7 153 -13 324 -12 330 -20 399 -50 415
-10 6 -55 10 -99 10 l-81 0 0 -596z"/>
</g>
</svg>
